HIERARCHY
ROOT Hips
{
	OFFSET -0.001795 -0.223333 0.028219
	CHANNELS 6 Xposition Yposition Zposition Zrotation Yrotation Xrotation 
	JOINT LeftUpLeg
	{
		OFFSET 0.069520 -0.091406 -0.006815
		CHANNELS 3 Zrotation Yrotation Xrotation
		JOINT LeftLeg
		{
			OFFSET 0.034277 -0.375199 -0.004496
			CHANNELS 3 Zrotation Yrotation Xrotation
			JOINT LeftFoot
			{
				OFFSET -0.013596 -0.397961 -0.043693
				CHANNELS 3 Zrotation Yrotation Xrotation
				JOINT LeftToe
				{
					OFFSET 0.026358 -0.055791 0.119288
					CHANNELS 3 Zrotation Yrotation Xrotation
					End Site
					{
						OFFSET 0.000000 0.000000 0.000000
					}
				}
			}
		}
	}
	JOINT RightUpLeg
	{
		OFFSET -0.067670 -0.090522 -0.004320
		CHANNELS 3 Zrotation Yrotation Xrotation
		JOINT RightLeg
		{
			OFFSET -0.038290 -0.382569 -0.008850
			CHANNELS 3 Zrotation Yrotation Xrotation
			JOINT RightFoot
			{
				OFFSET 0.015774 -0.398415 -0.042312
				CHANNELS 3 Zrotation Yrotation Xrotation
				JOINT RightToe
				{
					OFFSET -0.025372 -0.048144 0.123348
					CHANNELS 3 Zrotation Yrotation Xrotation
					End Site
					{
						OFFSET 0.000000 0.000000 0.000000
					}
				}
			}
		}
	}
	JOINT Spine
	{
		OFFSET -0.002533 0.108963 -0.026696
		CHANNELS 3 Zrotation Yrotation Xrotation
		JOINT Spine1
		{
			OFFSET 0.005487 0.135180 0.001092
			CHANNELS 3 Zrotation Yrotation Xrotation
			JOINT Spine2
			{
				OFFSET 0.001457 0.052922 0.025425
				CHANNELS 3 Zrotation Yrotation Xrotation
				JOINT Neck
				{
					OFFSET -0.002778 0.213870 -0.042857
					CHANNELS 3 Zrotation Yrotation Xrotation
					JOINT Head
					{
						OFFSET 0.005152 0.064970 0.051349
						CHANNELS 3 Zrotation Yrotation Xrotation
						End Site
						{
							OFFSET 0.000000 0.000000 0.000000
						}
					}
				}
				JOINT LeftShoulder
				{
					OFFSET 0.078845 0.121749 -0.034090
					CHANNELS 3 Zrotation Yrotation Xrotation
					JOINT LeftArm
					{
						OFFSET 0.090977 0.030469 -0.008868
						CHANNELS 3 Zrotation Yrotation Xrotation
						JOINT LeftForeArm
						{
							OFFSET 0.259612 -0.012772 -0.027456
							CHANNELS 3 Zrotation Yrotation Xrotation
							JOINT LeftHand
							{
								OFFSET 0.249234 0.008986 -0.001171
								CHANNELS 3 Zrotation Yrotation Xrotation
								End Site
								{
									OFFSET 0.000000 0.000000 0.000000
								}
							}
						}
					}
				}
				JOINT RightShoulder
				{
					OFFSET -0.081759 0.118833 -0.038615
					CHANNELS 3 Zrotation Yrotation Xrotation
					JOINT RightArm
					{
						OFFSET -0.096012 0.032551 -0.009143
						CHANNELS 3 Zrotation Yrotation Xrotation
						JOINT RightForeArm
						{
							OFFSET -0.253742 -0.013329 -0.021401
							CHANNELS 3 Zrotation Yrotation Xrotation
							JOINT RightHand
							{
								OFFSET -0.255298 0.007772 -0.005559
								CHANNELS 3 Zrotation Yrotation Xrotation
								End Site
								{
									OFFSET 0.000000 0.000000 0.000000
								}
							}
						}
					}
				}
			}
		}
	}
}
MOTION
Frames: 10
Frame Time: 0.050000
0.000000 0.956505 0.000000 -0.574333 -3.373536 -3.120401 -0.234606 0.442045 4.520818 1.116483 -0.061510 -1.603827 -1.572215 -0.187167 7.105113 0.000000 0.000000 0.000000 0.279313 -0.059467 0.555151 -2.055751 0.319205 1.846687 4.220881 4.980661 8.073851 0.000000 0.000000 0.000000 5.114967 -0.333248 4.190508 -2.291421 1.096477 -1.832213 -3.714835 4.526973 7.827025 7.590664 -3.928204 -12.029658 0.000000 0.000000 0.000000 -20.276426 -7.243768 1.133646 -51.570169 -3.975998 -4.592618 -8.960139 -23.174030 2.579079 0.000000 0.000000 0.000000 17.904389 -0.627475 -1.100515 58.119725 3.912539 -4.215349 13.107823 30.176005 4.712254 0.000000 0.000000 0.000000 
0.000375 0.955885 0.000033 -0.632373 -3.836730 -3.022633 0.058905 0.483665 5.034554 0.764501 0.026200 -2.877082 -1.079183 0.635813 6.966222 0.000000 0.000000 0.000000 0.231049 -0.013065 0.098741 -2.130000 0.394560 2.945796 4.247032 5.641422 7.056431 0.000000 0.000000 0.000000 5.655510 -0.345613 4.142395 -2.674696 1.279538 -1.331492 -4.599944 5.510836 7.074731 8.315935 -4.020718 -13.556428 0.000000 0.000000 0.000000 -19.911209 -7.513841 1.002132 -51.565149 -3.681360 -4.582792 -8.313786 -23.103169 2.386511 0.000000 0.000000 0.000000 17.887211 -1.385537 -1.302158 59.603264 2.948218 -4.702270 12.432011 30.509124 4.675870 0.000000 0.000000 0.000000 
0.000701 0.955024 -0.000108 -0.375631 -3.299330 -2.950812 -0.438164 0.454203 4.564829 1.025089 -0.045663 -1.750224 -1.080578 0.276906 5.951490 0.000000 0.000000 0.000000 0.252442 -0.003844 -0.000262 -2.705400 0.504434 3.461600 4.184219 5.797919 6.687302 0.000000 0.000000 0.000000 5.410660 -0.332857 4.038797 -2.269589 1.081274 -2.612210 -4.847720 5.543595 7.950658 7.599942 -3.531022 -13.613335 0.000000 0.000000 0.000000 -19.667005 -7.432376 0.935855 -51.768820 -3.829984 -4.620047 -8.638927 -22.047271 2.336613 0.000000 0.000000 0.000000 18.667198 -1.483907 -1.303527 58.804986 2.701772 -4.894754 11.755654 30.414037 4.514283 0.000000 0.000000 0.000000 
0.000859 0.954766 -0.000161 -0.328380 -2.966912 -3.565348 -0.462381 0.529704 5.324247 1.226590 -0.040823 -2.298485 -1.372284 -0.141363 6.216242 0.000000 0.000000 0.000000 0.181093 -0.012974 0.112439 -2.967516 0.592056 4.186243 4.531866 6.682690 6.576303 0.000000 0.000000 0.000000 5.395266 -0.362301 4.521799 -2.035096 0.980456 -1.885167 -5.169828 5.582106 7.377560 7.871979 -3.604511 -13.957795 0.000000 0.000000 0.000000 -19.611714 -7.421061 0.817300 -52.033931 -3.807207 -4.587796 -7.883317 -22.512757 2.215823 0.000000 0.000000 0.000000 18.529794 -1.020764 -0.985394 58.707840 3.093030 -4.650067 10.802251 30.031047 4.206376 0.000000 0.000000 0.000000 
0.001050 0.954188 -0.000250 -0.268229 -2.705650 -3.873822 -0.910913 0.534846 5.200603 1.830415 -0.130607 -1.654929 -0.955016 0.441231 5.657037 0.000000 0.000000 0.000000 0.002765 -0.011427 0.132354 -3.019386 0.629703 4.601902 4.396357 6.734009 6.084603 0.000000 0.000000 0.000000 5.398620 -0.390767 4.912801 -1.981177 0.957967 -1.853506 -5.264734 5.722125 7.205708 7.769378 -3.545404 -13.727285 0.000000 0.000000 0.000000 -19.882629 -7.675237 0.832931 -51.622195 -4.030648 -4.403954 -7.638563 -22.492765 2.150031 0.000000 0.000000 0.000000 18.566000 -1.255567 -1.048145 58.797526 3.124101 -4.629018 9.962048 29.549469 3.932594 0.000000 0.000000 0.000000 
0.001163 0.953746 -0.000237 -0.343669 -2.273138 -4.169847 -0.797556 0.542197 5.352321 1.918912 -0.142943 -1.561763 -0.830561 0.535518 5.226039 0.000000 0.000000 0.000000 0.129085 -0.009092 0.084832 -3.236757 0.699284 5.103450 4.510324 7.069989 6.033611 0.000000 0.000000 0.000000 5.631970 -0.416569 5.164614 -1.952678 0.948656 -2.355833 -5.301396 5.632580 7.857791 7.738647 -3.505924 -13.864776 0.000000 0.000000 0.000000 -20.252152 -8.002150 0.962154 -51.284099 -4.065851 -4.394307 -7.421876 -22.936358 2.151453 0.000000 0.000000 0.000000 18.794630 -0.923384 -0.824049 58.598257 3.675443 -4.433761 8.806241 28.235083 3.458811 0.000000 0.000000 0.000000 
0.001299 0.953428 -0.000127 -0.267582 -2.236926 -4.270624 -0.950084 0.527139 5.145192 1.981368 -0.165100 -1.254266 -0.666898 0.847692 5.217025 0.000000 0.000000 0.000000 -0.045570 0.008228 -0.062546 -3.168708 0.727549 5.636877 4.570547 7.442221 5.696390 0.000000 0.000000 0.000000 5.623129 -0.416265 5.186878 -2.080932 1.008827 -2.146360 -5.335425 5.569790 7.753559 7.950480 -3.562441 -14.322685 0.000000 0.000000 0.000000 -20.425568 -7.959928 0.926711 -51.152188 -4.066411 -4.365054 -6.877186 -23.333587 2.077273 0.000000 0.000000 0.000000 18.685054 -0.656942 -0.685206 59.075243 3.977106 -4.292483 7.687181 27.642180 3.105549 0.000000 0.000000 0.000000 
0.001475 0.953473 0.000168 -0.297687 -2.005028 -4.128787 -0.939628 0.501731 4.913969 1.908298 -0.175964 -0.870541 -0.599235 0.828759 4.811663 0.000000 0.000000 0.000000 0.012564 0.033423 -0.328993 -3.149994 0.742918 5.894181 4.419651 7.126962 5.682747 0.000000 0.000000 0.000000 5.570997 -0.392497 4.894922 -2.005278 0.975396 -2.255887 -5.387978 5.486344 8.034797 7.868484 -3.468861 -14.549214 0.000000 0.000000 0.000000 -20.496805 -8.105443 1.002165 -50.794298 -3.991954 -4.375752 -6.985854 -24.309473 2.188950 0.000000 0.000000 0.000000 18.786418 -0.612252 -0.647942 59.066706 4.552069 -4.033949 7.293821 26.913112 2.921168 0.000000 0.000000 0.000000 
0.001727 0.953702 0.000752 -0.252558 -2.171271 -4.043547 -1.064911 0.488888 4.730526 1.852775 -0.179667 -0.688411 -0.377199 1.194444 4.678498 0.000000 0.000000 0.000000 -0.039185 0.053584 -0.527354 -3.068533 0.745632 6.115584 4.460445 7.163637 5.743513 0.000000 0.000000 0.000000 5.536695 -0.375460 4.695851 -2.034650 0.986906 -2.151379 -5.386169 5.529062 7.939846 7.930557 -3.492630 -14.650411 0.000000 0.000000 0.000000 -20.360719 -8.192255 1.070449 -50.701075 -3.947148 -4.382009 -7.061170 -24.759203 2.244884 0.000000 0.000000 0.000000 18.600905 -0.271913 -0.468418 59.158123 4.698734 -3.950209 7.057579 26.781531 2.845037 0.000000 0.000000 0.000000 
0.002041 0.953873 0.001479 -0.303455 -2.355627 -3.924969 -1.061986 0.477646 4.613580 1.677034 -0.167159 -0.560569 -0.111622 1.614064 4.459980 0.000000 0.000000 0.000000 0.032812 0.075133 -0.754441 -3.090168 0.756657 6.222650 4.284698 6.869453 5.561444 0.000000 0.000000 0.000000 5.645459 -0.350976 4.353565 -1.949968 0.945689 -2.103388 -5.520582 5.642603 8.040428 7.945483 -3.443986 -14.947954 0.000000 0.000000 0.000000 -20.141090 -8.492572 1.244350 -50.806291 -3.788685 -4.468048 -7.218860 -25.602620 2.354994 0.000000 0.000000 0.000000 18.579193 -0.248934 -0.442388 59.144607 5.064766 -3.775274 6.965130 26.650729 2.811317 0.000000 0.000000 0.000000 
